<svg xmlns="http://www.w3.org/2000/svg" viewBox="0 0 64 64" role="img" aria-label="JBA GreenGold favicon">
  <rect x="2" y="2" width="60" height="60" rx="14" fill="#ffffff"/>
  <path d="M32 14c-10 0-18 8.2-18 18.4S22 50.8 32 50.8s18-8.2 18-18.4S42 14 32 14z" fill="#f59e0b"/>
  <path d="M32 18.8c-7.5 0-13.6 6.1-13.6 13.6S24.5 46 32 46s13.6-6.1 13.6-13.6S39.5 18.8 32 18.8z" fill="#fbbf24"/>
  <path d="M24.8 35.8c0-1.8 1.4-3.2 3.2-3.2H36c1.8 0 3.2 1.4 3.2 3.2S37.8 39 36 39h-8c-1.8 0-3.2-1.4-3.2-3.2z" fill="#14532d"/>
  <path d="M35 10.5c3.2-1.8 6.8-2 10.3-.7-2.2 2.9-5.4 4.8-9.4 5.6z" fill="#166534"/>
</svg>
